<?xml version="1.0" encoding="UTF-8" standalone="no"?>
<!-- Created with Inkscape (http://www.inkscape.org/) -->

<svg
   width="210mm"
   height="297mm"
   viewBox="0 0 210 297"
   version="1.1"
   id="svg768"
   inkscape:version="1.2.1 (9c6d41e4, 2022-07-14)"
   sodipodi:docname="opsify-flame-curly-font.svg"
   xmlns:inkscape="http://www.inkscape.org/namespaces/inkscape"
   xmlns:sodipodi="http://sodipodi.sourceforge.net/DTD/sodipodi-0.dtd"
   xmlns="http://www.w3.org/2000/svg"
   xmlns:svg="http://www.w3.org/2000/svg">
  <sodipodi:namedview
     id="namedview770"
     pagecolor="#ffffff"
     bordercolor="#666666"
     borderopacity="1.0"
     inkscape:showpageshadow="2"
     inkscape:pageopacity="0.0"
     inkscape:pagecheckerboard="0"
     inkscape:deskcolor="#d1d1d1"
     inkscape:document-units="mm"
     showgrid="false"
     inkscape:zoom="2.0810959"
     inkscape:cx="391.14007"
     inkscape:cy="558.35966"
     inkscape:window-width="706"
     inkscape:window-height="480"
     inkscape:window-x="0"
     inkscape:window-y="0"
     inkscape:window-maximized="0"
     inkscape:current-layer="layer1" />
  <defs
     id="defs765">
    <inkscape:path-effect
       effect="lattice2"
       gridpoint0="40.077488,56.316036"
       gridpoint1="78.979601,63.166008"
       gridpoint2="40.077488,80.550872"
       gridpoint3="78.137167,73.165503"
       gridpoint4="49.6563,56.316036"
       gridpoint5="68.813925,56.316036"
       gridpoint6="49.6563,80.550872"
       gridpoint7="68.813925,80.550872"
       gridpoint8x9="59.235113,56.316036"
       gridpoint10x11="59.235113,80.550872"
       gridpoint12="40.606654,55.763611"
       gridpoint13="78.392737,62.374745"
       gridpoint14="30.017894,83.693624"
       gridpoint15="78.392737,74.492163"
       gridpoint16="49.6563,62.374745"
       gridpoint17="68.813925,62.374745"
       gridpoint18="48.722821,79.52859"
       gridpoint19="68.813925,74.492163"
       gridpoint20x21="59.235113,62.374745"
       gridpoint22x23="59.823328,76.326699"
       gridpoint24x26="40.077488,68.433454"
       gridpoint25x27="78.392737,68.433454"
       gridpoint28x30="49.6563,68.433454"
       gridpoint29x31="68.813925,68.433454"
       gridpoint32x33x34x35="59.235113,68.433454"
       id="path-effect625"
       is_visible="true"
       lpeversion="1"
       horizontal_mirror="false"
       vertical_mirror="false"
       perimetral="false"
       live_update="true" />
  </defs>
  <g
     inkscape:label="Layer 1"
     inkscape:groupmode="layer"
     id="layer1">
    <g
       id="g610"
       transform="matrix(0.30386619,0.65932114,-0.65932114,0.30386619,139.67883,66.827896)">
      <path
         id="rect234-1"
         style="fill:#ff0000;fill-rule:evenodd;stroke:#000000;stroke-width:0.228529;stroke-dasharray:none"
         d="m 88.343117,77.414873 c -1.05924,1.16924 -2.03626,2.38358 -1.98765,4.1639 v 11.42029 c -1.44802,1.22051 -2.32645,3.69459 -2.25081,6.33864 0.005,0.16003 0.0139,0.31966 0.0263,0.47869 h 1.57251 a 2.6361626,5.660557 0 0 1 -0.0198,-0.65617 2.6361626,5.660557 0 0 1 2.62836,-5.67107 2.6361626,5.660557 0 0 1 2.57733,4.40758 2.4889829,6.5877171 0 0 1 0.18582,1.91966 h 1.36306 c 0.0205,-0.26414 0.0316,-0.52999 0.0327,-0.7962 l -0.0183,-0.63445 c -0.1308,-2.25789 -0.94808,-4.26073 -2.1783,-5.33838 v -11.46859 c 0.20373,-1.43817 -0.63728,-2.81426 -1.93127,-4.1639 z" />
      <path
         style="fill:#ecbb46;fill-opacity:0.710588;fill-rule:evenodd;stroke:none;stroke-width:0.114923;stroke-dasharray:none;stroke-opacity:1"
         id="path14475-7"
         sodipodi:type="arc"
         sodipodi:cx="88.506683"
         sodipodi:cy="104.57991"
         sodipodi:rx="3.5644693"
         sodipodi:ry="8.6194839"
         sodipodi:start="0"
         sodipodi:end="6.2793698"
         sodipodi:arc-type="slice"
         d="m 92.071153,104.57991 a 3.5644693,8.6194839 0 0 1 -3.56107,8.61948 3.5644693,8.6194839 0 0 1 -3.567863,-8.60304 3.5644693,8.6194839 0 0 1 3.554263,-8.635888 3.5644693,8.6194839 0 0 1 3.574644,8.586558 l -3.564444,0.0329 z" />
      <path
         style="fill:#ec9d46;fill-opacity:0.710588;fill-rule:evenodd;stroke:none;stroke-width:0.0715904;stroke-dasharray:none;stroke-opacity:1"
         id="path14475-6-2"
         sodipodi:type="arc"
         sodipodi:cx="88.63398"
         sodipodi:cy="102.65015"
         sodipodi:rx="1.7822347"
         sodipodi:ry="6.6897483"
         sodipodi:start="0"
         sodipodi:end="6.2793698"
         sodipodi:arc-type="slice"
         d="m 90.416214,102.65015 a 1.7822347,6.6897483 0 0 1 -1.780534,6.68974 1.7822347,6.6897483 0 0 1 -1.783932,-6.67698 1.7822347,6.6897483 0 0 1 1.777132,-6.702484 1.7822347,6.6897483 0 0 1 1.787321,6.664194 l -1.782221,0.0255 z" />
      <g
         id="g3561-3-3"
         transform="matrix(0.13316022,0,0,0.12590974,77.694957,76.909113)"
         style="fill:#000000">
        <path
           id="rect234-8-65"
           style="fill:#000000;fill-rule:evenodd;stroke:#000000;stroke-width:1.76492;stroke-dasharray:none"
           d="m 70.269929,41.852226 v 90.698854 c -10.874312,9.69345 -17.472873,29.34466 -16.904781,50.34422 0.04041,1.2711 0.107054,2.53934 0.199799,3.80235 h 12.593539 c -0.257116,-2.24472 -0.413783,-4.53145 -0.468114,-6.83266 -0.393244,-17.24538 4.95517,-32.91004 13.085131,-38.32428 v 27.50375 h 11.974978 v -27.5022 c 7.19708,4.79099 12.307349,17.71176 13.022369,32.92564 l 0.0838,3.59668 c -0.007,2.90705 -0.17683,5.8032 -0.50692,8.63307 h 12.60121 c 0.1535,-2.09786 0.23493,-4.20939 0.24387,-6.32365 l -0.13702,-5.03742 c -0.98223,-17.93254 -7.11943,-33.83954 -16.358054,-42.39844 V 41.852226 C 101.22968,30.430134 94.913331,19.498436 85.195833,8.7793093 77.24128,18.065718 69.904834,27.712689 70.269929,41.852226 Z"
           sodipodi:nodetypes="cccccccccccccccccccc" />
        <path
           id="path3431-1-5"
           style="fill-rule:evenodd;stroke-width:3.61039"
           d="m 90.016732,40.443451 a 5.2538686,5.2538686 0 0 1 -5.130995,5.252431 5.2538686,5.2538686 0 0 1 -5.370995,-5.006752 5.2538686,5.2538686 0 0 1 4.87977,-5.486619 5.2538686,5.2538686 0 0 1 5.599243,4.750118" />
        <path
           id="path3431-3-5-8"
           style="fill-rule:evenodd;stroke-width:3.61039"
           d="m 90.016732,71.966667 a 5.2538686,5.2538686 0 0 1 -5.130995,5.252432 5.2538686,5.2538686 0 0 1 -5.370995,-5.006752 5.2538686,5.2538686 0 0 1 4.87977,-5.48662 5.2538686,5.2538686 0 0 1 5.599243,4.750119" />
        <path
           id="path3431-3-9-3-1"
           style="fill-rule:evenodd;stroke-width:3.61039"
           d="m 90.016732,103.48988 a 5.2538686,5.2538686 0 0 1 -5.130995,5.25243 5.2538686,5.2538686 0 0 1 -5.370995,-5.00675 5.2538686,5.2538686 0 0 1 4.87977,-5.486617 5.2538686,5.2538686 0 0 1 5.599243,4.750117" />
      </g>
      <path
         style="fill:#ecbb46;fill-opacity:0.710588;fill-rule:evenodd;stroke:none;stroke-width:0.0965503;stroke-dasharray:none;stroke-opacity:1"
         id="path10992-4"
         sodipodi:type="arc"
         sodipodi:cx="88.582237"
         sodipodi:cy="98.301849"
         sodipodi:rx="1.4003272"
         sodipodi:ry="3.995347"
         sodipodi:start="0"
         sodipodi:end="6.2793698"
         sodipodi:arc-type="slice"
         d="m 89.982564,98.301849 a 1.4003272,3.995347 0 0 1 -1.398991,3.995341 1.4003272,3.995347 0 0 1 -1.40166,-3.987719 1.4003272,3.995347 0 0 1 1.396317,-4.002952 1.4003272,3.995347 0 0 1 1.404324,3.980086 l -1.400317,0.01524 z" />
      <path
         id="rect234-8-6-7"
         style="fill:#d40000;fill-rule:evenodd;stroke:none;stroke-width:0.203225;stroke-dasharray:none"
         d="m 88.411317,78.137803 c -0.90714,1.06256 -1.80682,2.40867 -1.62298,3.91912 v 10.0667 c -0.017,0.37878 0.10664,0.8129 -0.28142,1.03338 -1.2967,1.67735 -2.14089,3.94703 -2.01826,6.06184 l 1.02631,0.0906 c -0.10922,-0.98944 -0.0961,-1.79229 0.22826,-2.94219 0.39343,-1.39448 0.59652,-1.57874 1.33405,-2.22143 a 4.7473811,5.660557 0 0 1 1.39635,-1.09741 v -14.83522 c -0.0208,-0.025 -0.0415,-0.0505 -0.0623,-0.0754 z" />
      <path
         id="path3431-13"
         style="fill-rule:evenodd;stroke-width:0.467489"
         d="m 88.985067,81.401643 a 0.69960625,0.66151329 0 0 1 -0.68324,0.66133 0.69960625,0.66151329 0 0 1 -0.71521,-0.6304 0.69960625,0.66151329 0 0 1 0.64979,-0.69082 0.69960625,0.66151329 0 0 1 0.7456,0.59809" />
      <path
         id="path3431-3-8"
         style="fill-rule:evenodd;stroke-width:0.467489"
         d="m 88.985067,85.370723 a 0.69960625,0.66151329 0 0 1 -0.68324,0.66134 0.69960625,0.66151329 0 0 1 -0.71521,-0.6304 0.69960625,0.66151329 0 0 1 0.64979,-0.69082 0.69960625,0.66151329 0 0 1 0.7456,0.59808" />
      <path
         id="path3431-3-9-4"
         style="fill-rule:evenodd;stroke-width:0.467489"
         d="m 88.985067,89.339803 a 0.69960625,0.66151329 0 0 1 -0.68324,0.66134 0.69960625,0.66151329 0 0 1 -0.71521,-0.6304 0.69960625,0.66151329 0 0 1 0.64979,-0.69082 0.69960625,0.66151329 0 0 1 0.7456,0.59808" />
      <path
         id="rect7979-8"
         style="fill-opacity:0.507576;fill-rule:evenodd;stroke-width:1.17535"
         d="m 87.806597,93.814803 c -0.30118,0.10261 -0.25241,0.25671 -0.25241,0.25671 l 0.003,0.24749 a 1.939996,7.4158662 0 0 1 0.24973,-0.5042 z" />
    </g>
    <g
       aria-label="opsify"
       transform="matrix(0.6942951,0.01374433,0.12868458,0.61036698,49.174299,100.99524)"
       id="text385"
       style="font-size:10.5833px;line-height:1.25;white-space:pre;inline-size:56.015;fill:#3d3846;stroke-width:0.264583"
       inkscape:path-effect="#path-effect625">
      <path
         d="m 45.186749,68.425268 c -0.822359,0.634886 -2.129533,1.131683 -2.9502,1.098195 -0.104795,0.0015 -0.284194,-0.04129 -0.284194,-0.04129 -0.106858,8.81e-4 -0.340599,-0.05085 -0.340599,-0.05085 0.141816,-0.309949 0.418805,-0.874976 0.534269,-1.273729 0.514238,-1.367253 0.876093,-2.889286 0.607208,-3.981023 -0.149316,-0.590077 -0.618607,-1.073804 -1.10202,-1.174321 -0.214854,-0.04467 -0.698407,0.01009 -0.992562,0.186671 -0.751163,0.319523 -1.594526,1.379479 -1.918567,2.348484 -0.135817,0.406145 -0.2668,0.985022 -0.260993,1.340957 -0.08101,0.07113 -0.217016,0.131224 -0.326876,0.108513 -0.303919,0.206708 -0.831543,0.616711 -1.157381,0.910343 -0.410153,0.369613 -0.966791,1.123297 -1.273806,1.602579 -0.358572,0.660302 -0.773674,1.670249 -0.930327,2.423964 -0.104217,0.50143 -0.164087,1.130165 -0.123305,1.626581 0.06094,0.74175 0.550985,1.473675 1.054003,1.69066 0.169182,0.02348 0.333154,0.117801 0.503149,0.14025 0.39592,0.05228 0.982509,-0.08743 1.298287,-0.338565 0.974531,-0.527218 1.849937,-1.63063 2.621346,-2.746521 0.332893,-0.498987 0.866341,-1.45657 1.139437,-2.07049 0.05699,0.0083 0.113976,0.01653 0.248838,-0.04795 1.015116,-0.02286 2.66537,-0.726034 3.667555,-1.587399 0.135192,-0.06511 0.06515,-0.236871 -0.01326,-0.165051 z m -5.008916,-4.030075 c 0.405493,-0.499857 1.049933,-0.845951 1.454291,-0.842927 0.01959,0.01976 0.05413,0.01108 0.05413,0.01108 0.377826,0.07729 0.739482,0.547238 0.805204,1.048747 0.239813,1.020173 -0.207522,2.455467 -0.617476,3.671601 -0.150072,0.316066 -0.3438,0.796035 -0.489019,1.112941 C 40.719466,69.208127 39.932931,68.478575 39.627972,67.716975 39.3728,66.787224 39.44531,65.33194 40.177833,64.395193 Z m 0.08501,7.100602 c -0.487174,0.834178 -1.360935,1.93078 -1.955474,2.451254 -0.403348,0.331416 -1.021863,0.623523 -1.427993,0.642463 -0.06231,0.0062 -0.227279,-0.03155 -0.227279,-0.03155 -0.456644,-0.064 -0.906973,-0.58261 -1.042534,-1.169452 -0.114917,-1.068844 0.325206,-2.257849 0.841988,-3.128179 0.378579,-0.550478 1.002457,-1.37085 1.413019,-1.744223 0.238933,-0.217289 0.423692,-0.445071 0.664747,-0.661189 0.241435,1.549388 1.312977,2.240288 2.46957,2.328793 -0.16016,0.393201 -0.494655,1.021904 -0.736044,1.312084 z"
         style="font-size:50.8px;font-family:'Bellamy Signature';-inkscape-font-specification:'Bellamy Signature, Normal'"
         id="path612"
         inkscape:original-d="m 48.307087,66.679236 c -0.5588,0.4572 -1.5748,0.8636 -2.286,0.9144 -0.1016,0 -0.2032,0 -0.254,0 -0.1016,0 -0.2032,0 -0.3048,0 0.0508,-0.2032 0.1524,-0.5588 0.1524,-0.8128 0.1016,-0.8636 0,-1.8288 -0.5588,-2.4892 -0.3048,-0.3556 -0.8636,-0.6096 -1.3208,-0.6096 -0.2032,0 -0.6096,0.1016 -0.8128,0.254 -0.5588,0.3048 -0.9652,1.0668 -0.9652,1.6764 0,0.254 0.0508,0.6096 0.1524,0.8128 -0.0508,0.0508 -0.1524,0.1016 -0.254,0.1016 -0.203199,0.1524 -0.558799,0.4572 -0.761999,0.6604 -0.254,0.254 -0.5588,0.762 -0.7112,1.0668 -0.1524,0.4064 -0.3048,1.0668 -0.3048,1.524 0,0.3048 0.0508,0.7112 0.1524,1.016 0.1524,0.4572 0.6604,0.9144 1.1176,1.016 0.1524,0 0.3048,0.0508 0.457199,0.0508 0.3556,0 0.8636,-0.1524 1.1176,-0.3556 0.8128,-0.4572 1.4224,-1.27 1.8796,-2.032 0.2032,-0.3556 0.4572,-0.9652 0.5588,-1.3716 0.0508,0 0.1016,0 0.2032,-0.0508 0.8636,-0.1016 2.1336,-0.6604 2.794,-1.27 0.1016,-0.0508 0,-0.1524 -0.0508,-0.1016 z m -5.4356,-1.9304 c 0.2032,-0.3556 0.6604,-0.6604 1.016,-0.7112 0,0 0.0508,0 0.0508,0 0.3556,0 0.8128,0.254 1.016,0.5588 0.508,0.6096 0.508,1.524 0.4572,2.286 -0.0508,0.2032 -0.1016,0.508 -0.1524,0.7112 -0.6096,-0.0508 -1.4732,-0.4064 -1.9304,-0.8128 -0.4572,-0.508 -0.8128,-1.3716 -0.4572,-2.032 z m 1.8796,4.2164 c -0.254,0.5588 -0.8128,1.3208 -1.27,1.7272 -0.3048,0.254 -0.8128,0.508 -1.1684,0.5588 -0.0508,0 -0.1524,0 -0.2032,0 -0.406399,0 -0.863599,-0.3048 -1.066799,-0.6604 -0.254,-0.6604 -0.1016,-1.4224 0.1524,-1.9812 0.2032,-0.3556 0.5588,-0.9144 0.812799,-1.1684 0.1524,-0.1524 0.254,-0.3048 0.4064,-0.4572 0.6096,0.8636 1.6764,1.1684 2.6924,1.1176 -0.0508,0.254 -0.2032,0.6604 -0.3556,0.8636 z" />
      <path
         d="m 52.838216,64.541178 c -1.19592,-0.415247 -2.698458,0.607227 -3.879338,1.641929 -1.033707,0.905748 -2.474439,2.49736 -3.386127,3.66402 -0.852239,1.037875 -1.654292,2.167822 -2.406844,3.319838 -0.102707,-0.08405 -0.204639,-0.168873 -0.248137,-0.249542 1.047113,-1.789363 2.807086,-4.335605 4.140623,-5.95332 0.630759,-0.790073 1.19011,-1.498839 1.783778,-2.155042 0.600128,-0.663341 1.362523,-1.327408 1.74982,-2.054826 0.01178,-0.0022 0.01866,-0.06235 0.01866,-0.06235 0.03714,-0.124065 -0.05172,-0.202661 -0.158828,-0.220237 -0.007,0.01155 -0.05358,-0.0088 -0.05358,-0.0088 -0.711632,0.276022 -1.283416,0.910496 -1.869726,1.490023 -0.592615,0.634158 -1.20278,1.312037 -1.761147,2.021207 -1.07357,1.26927 -2.053692,2.636292 -3.053144,3.993644 -0.413713,0.68887 -0.87455,1.369603 -1.259663,2.044439 -0.206699,-0.425201 -0.191131,-1.225712 -0.04491,-1.796797 0.103963,-0.406053 0.408454,-1.107089 0.694285,-1.490223 0.05663,0.0081 0.07911,-0.07237 0.07911,-0.07237 0.02248,-0.08043 0.01117,-0.24962 -0.101664,-0.266342 -0.0565,-0.0084 -0.135849,0.06381 -0.135849,0.06381 -0.36774,0.456032 -0.775141,1.310822 -0.919958,1.879758 -0.188438,0.74031 -0.117201,1.698646 0.06589,2.275755 -1.151405,1.955838 -2.133736,4.193288 -2.429939,5.554518 -0.28784,1.215909 -0.104868,2.144625 0.6813,2.395997 0.01886,0.0083 0.980427,0.08102 0.68049,-0.01055 -0.331729,-0.07382 -0.521896,-0.254926 -0.635562,-0.521185 -0.193582,-0.725534 0.357945,-2.326361 1.322396,-4.050078 0.400443,-0.687748 0.797847,-1.383272 1.265446,-2.075785 0.538727,0.415299 1.520997,0.796087 2.187605,0.811952 0.177314,0.0042 0.364143,-0.05986 0.541601,-0.05703 2.56225,-0.227548 5.21549,-2.809701 6.815114,-5.600936 0.912371,-1.551299 1.885934,-3.994748 0.31829,-4.511479 z m -10.319725,9.616965 c -0.685472,0.967803 -1.268042,1.964076 -1.666838,2.892593 0.396105,-1.104467 1.028471,-2.338937 1.719921,-3.555022 0.04503,0.07898 0.148898,0.162038 0.19473,0.239781 -0.08231,0.13945 -0.155842,0.212728 -0.247813,0.422648 z m 10.007721,-7.189975 c -1.020401,2.600388 -3.188752,5.085724 -5.330602,6.179997 -1.282456,0.610803 -2.767504,0.862417 -3.82383,0.185502 0.946269,-1.422071 2.500179,-3.469152 3.65389,-4.780749 0.880517,-1.051977 2.293354,-2.252711 3.284655,-2.887095 0.623363,-0.373649 1.335945,-0.708777 1.905047,-0.505329 0.25536,0.09807 0.512703,0.404512 0.54961,0.688405 0.01846,0.142025 5.64e-4,0.423541 -0.05448,0.6326 -0.03659,0.138992 -0.09182,0.349871 -0.184295,0.486669 z"
         style="font-size:50.8px;font-family:'Bellamy Signature';-inkscape-font-specification:'Bellamy Signature, Normal'"
         id="path614"
         inkscape:original-d="m 54.09826,63.478836 c -1.1684,-0.2032 -2.286,0.7112 -3.048,1.4732 -0.6604,0.6604 -1.5748,1.8288 -2.0828,2.5908 -0.508,0.7112 -0.9652,1.4732 -1.4224,2.286 -0.1016,-0.0508 -0.2032,-0.1016 -0.254,-0.1524 0.5588,-1.1684 1.5748,-2.9972 2.286,-4.064 0.3556,-0.5588 0.6604,-1.0668 1.016,-1.5748 0.3556,-0.508 0.8636,-1.0668 1.016,-1.6764 0,0 0,-0.0508 0,-0.0508 0,-0.1016 -0.1016,-0.1524 -0.2032,-0.1524 0,0 -0.0508,0 -0.0508,0 -0.5588,0.3048 -0.9144,0.8636 -1.27,1.3208 -0.3556,0.508 -0.7112,1.016 -1.016,1.524 -0.6096,0.9144 -1.1176,1.8288 -1.6764,2.7432 -0.2032,0.4572 -0.4572,0.9144 -0.6604,1.3716 -0.254,-0.254 -0.4064,-0.762 -0.4064,-1.1176 0,-0.254 0.1016,-0.7112 0.254,-0.9652 0.0508,0 0.0508,-0.0508 0.0508,-0.0508 0,-0.0508 -0.0508,-0.1524 -0.1524,-0.1524 -0.0508,0 -0.1016,0.0508 -0.1016,0.0508 -0.2032,0.3048 -0.3556,0.8636 -0.3556,1.2192 0,0.4572 0.254,1.0668 0.508,1.4224 -0.5588,1.1684 -1.3208,3.1496 -1.7272,4.3688 -0.3556,1.016 -0.8128,2.6924 -1.016,3.7592 -0.1016,0.3048 0.4064,0.4572 0.508,0.1524 0.1016,-0.508 0.254,-1.016 0.4064,-1.524 0.4572,-1.2192 1.3208,-3.2004 1.9304,-4.3688 0.3048,-0.5588 0.5588,-1.0668 0.8636,-1.5748 0.508,0.254 1.4224,0.508 1.9812,0.508 0.1524,0 0.3048,-0.0508 0.4572,-0.0508 2.1844,-0.2032 4.1148,-2.0828 4.927599,-4.064 0.4572,-1.0668 0.8128,-2.9972 -0.761999,-3.2512 z m -6.9596,7.0612 c -0.4572,0.7112 -0.8636,1.4732 -1.2192,2.286 0.3556,-0.9652 0.762,-1.8796 1.1684,-2.7432 0.0508,0.0508 0.1524,0.1016 0.2032,0.1524 -0.0508,0.1016 -0.1016,0.1524 -0.1524,0.3048 z m 7.2644,-5.2832 c -0.3048,1.8796 -1.7272,3.6068 -3.4036,4.4196 -1.016,0.4572 -2.2352,0.6604 -3.2512,0.254 0.5588,-0.9652 1.524,-2.4384 2.1844,-3.302 0.508,-0.7112 1.4732,-1.6256 2.1844,-2.1336 0.4572,-0.3048 1.016,-0.6096 1.5748,-0.508 0.254,0.0508 0.5588,0.254 0.6604,0.4572 0.0508,0.1016 0.1016,0.3048 0.1016,0.4572 0,0.1016 0,0.254 -0.0508,0.3556 z" />
      <path
         d="m 57.772706,65.815551 c -0.554485,-0.461942 -1.44726,-0.22942 -2.093128,0.325274 -0.416973,0.306754 -0.910063,0.945962 -1.200889,1.425232 -0.754038,1.21546 -1.126723,2.559052 -1.505183,3.852613 -0.107718,0.530247 -0.44029,1.362064 -0.636552,1.866051 -0.274447,0.593288 -0.667774,1.342322 -1.272569,1.509858 -0.605237,0.109387 -1.070618,-0.396911 -1.095029,-0.992114 0.02095,-0.131287 -0.0047,-0.328813 0.0067,-0.395798 0.09178,-0.536948 0.57868,-1.23804 1.046476,-1.524836 0,0 0.08673,-0.140259 0.101149,-0.210296 0.02872,-0.139494 -0.05813,-0.27974 -0.174529,-0.279177 -0.04978,0.01416 -0.174758,6.1e-4 -0.174758,6.1e-4 -0.78682,0.648515 -1.262353,1.912945 -1.151645,2.747915 0.06174,0.780746 0.787314,1.238199 1.503302,1.170336 0.298386,-0.02828 0.789391,-0.247178 1.106654,-0.452077 0.954996,-0.774972 1.348428,-2.141615 1.70408,-3.352097 0.353253,-1.202318 0.720336,-2.57209 1.432808,-3.643368 0.463636,-0.740608 1.129672,-1.415761 1.811742,-1.450586 0.0099,0.01292 0.05534,0.0023 0.05534,0.0023 0.27643,0.01158 0.438184,0.268778 0.364478,0.580949 0.0036,0.03111 -0.02962,0.125659 -0.02962,0.125659 -0.128553,0.310621 -0.458056,0.75881 -0.742145,1.017307 -0.01866,0.01698 -0.126674,0.371398 0.06858,0.192905 0.411492,-0.325191 0.881021,-0.899425 1.037101,-1.329055 0.02594,-0.06362 0.04378,-0.186173 0.04378,-0.186173 0.08757,-0.371457 0.02371,-0.803866 -0.206156,-1.001464 z"
         style="font-size:50.8px;font-family:'Bellamy Signature';-inkscape-font-specification:'Bellamy Signature, Normal'"
         id="path616"
         inkscape:original-d="m 58.873411,64.139236 c -0.6096,-0.3556 -1.3716,-0.1016 -1.8288,0.3556 -0.3048,0.254 -0.6096,0.762 -0.762,1.1176 -0.4064,0.9144 -0.4572,1.8796 -0.5588,2.8448 0,0.4064 -0.1524,1.016 -0.254,1.4224 -0.1524,0.4572 -0.4064,1.0668 -0.9144,1.1684 -0.508,0.0508 -0.9652,-0.4064 -1.0668,-0.8636 0,-0.1016 -0.0508,-0.254 -0.0508,-0.3048 0,-0.4064 0.3048,-0.9144 0.6604,-1.1176 0,0 0.0508,-0.1016 0.0508,-0.1524 0,-0.1016 -0.1016,-0.2032 -0.2032,-0.2032 -0.0508,0 -0.1016,0 -0.1524,0 -0.5588,0.4572 -0.762,1.3716 -0.5588,2.032 0.1524,0.6096 0.8128,1.0668 1.4224,1.0668 0.254,0 0.6604,-0.1524 0.9144,-0.3048 0.762,-0.6096 0.9144,-1.7272 1.016,-2.6416 0.1016,-0.9144 0.1524,-1.9304 0.5588,-2.7432 0.254,-0.5588 0.7112,-1.1176 1.3208,-1.1684 0,0 0,0 0.0508,0 0.254,0 0.4572,0.2032 0.4572,0.4572 0,0 0,0.0508 0,0.1016 -0.0508,0.254 -0.254,0.6096 -0.4572,0.8128 -0.1016,0.1016 0.0508,0.2032 0.1016,0.1524 0.3048,-0.254 0.6096,-0.7112 0.6604,-1.0668 0,-0.0508 0,-0.1524 0,-0.1524 0,-0.3048 -0.1524,-0.6604 -0.4064,-0.8128 z" />
      <path
         d="m 61.058942,65.73321 c 0.231747,-0.04655 0.3937,-0.03966 0.527903,-0.142951 0.02649,0.01173 0.05447,0.0022 0.05447,0.0022 0.05287,-0.02324 0.132992,-0.101777 0.132992,-0.101777 0.07091,-0.02208 0.186923,-0.09797 0.186923,-0.09797 0.07484,-0.03921 0.198075,-0.148145 0.198075,-0.148145 0.0542,0.0028 0.119999,-0.04593 0.131561,-0.09716 0.119801,-0.04528 0.208016,-0.194024 0.230582,-0.294128 0.0449,-0.199153 -0.08297,-0.359014 -0.297579,-0.376092 -0.0056,0.0095 -0.05369,-0.0043 -0.05369,-0.0043 -0.107551,-0.0086 -0.279636,0.02827 -0.345262,0.07484 -0.0056,0.0097 -0.05377,-0.0042 -0.05377,-0.0042 -0.03521,0.04166 -0.131002,0.09361 -0.131002,0.09361 -0.03537,0.04219 -0.131434,0.09496 -0.131434,0.09496 -0.05346,0.04143 -0.185856,0.09257 -0.185856,0.09257 -0.01376,0.0272 -0.06613,0.04873 -0.06613,0.04873 -0.133021,0.09828 -0.277018,0.250274 -0.357203,0.356496 0.0045,0.02717 -0.0251,0.108487 -0.0251,0.108487 0.0077,0.01326 -0.01259,0.05445 -0.01259,0.05445 -0.0126,0.05452 -0.03793,0.164226 0.004,0.221562 0.04201,0.05748 0.138369,0.116626 0.193128,0.118736 z m 2.048718,3.071616 c -0.687486,0.680989 -1.79323,1.823532 -2.538191,2.569679 -0.65955,0.620473 -1.78491,1.560064 -2.531767,2.098552 -0.187183,0.134959 -0.563479,0.35814 -0.750662,0.4931 -0.309545,0.15857 -0.787564,0.34384 -1.091676,0.447822 -0.238006,0.04098 -0.450762,-0.129394 -0.491,-0.285812 -0.06642,-0.417583 0.177756,-0.905685 0.419581,-1.340323 0.436287,-0.884847 1.306772,-2.263326 1.948714,-3.119603 0.254753,-0.391338 0.771269,-1.009556 1.137948,-1.387509 0.20958,-0.187806 0.415155,-0.370118 0.636292,-0.611052 0.205661,-0.179494 0.453309,-0.535434 0.627095,-0.819738 0.0117,-0.0036 0.0129,-0.05736 0.0129,-0.05736 0.03858,-0.171418 -0.04582,-0.287128 -0.21125,-0.289844 -0.006,0.01126 -0.05516,-9.17e-4 -0.05516,-9.17e-4 -0.652905,0.164047 -1.163247,0.743726 -1.674664,1.24759 -0.374365,0.382906 -0.958008,1.058396 -1.293697,1.52919 -0.807554,1.064584 -1.781613,2.875948 -2.133211,4.039262 -0.219843,0.67696 -0.119133,1.352781 0.513805,1.497387 0.511092,0.112066 1.071044,-0.19368 1.557668,-0.480833 1.109721,-0.654837 2.079971,-1.594827 3.077312,-2.493893 1.006839,-0.99884 1.969541,-1.979241 2.932584,-2.942426 0.02642,-0.0058 0.0666,-0.05755 0.0666,-0.05755 0.01011,-0.05191 -0.03612,-0.09853 -0.09254,-0.09326 -0.05642,0.0053 -0.06668,0.05754 -0.06668,0.05754 z"
         style="font-size:50.8px;font-family:'Bellamy Signature';-inkscape-font-specification:'Bellamy Signature, Normal'"
         id="path618"
         inkscape:original-d="m 61.870529,63.936036 c 0.2032,-0.0508 0.3556,-0.0508 0.4572,-0.1524 h 0.0508 l 0.1016,-0.1016 0.1524,-0.1016 0.1524,-0.1524 c 0.0508,0 0.1016,-0.0508 0.1016,-0.1016 0.1016,-0.0508 0.1524,-0.2032 0.1524,-0.3048 0,0 0,0 0,0 0,-0.2032 -0.1524,-0.3556 -0.3556,-0.3556 0,0 -0.0508,0 -0.0508,0 0,0 0,0 0,0 -0.1016,0 -0.254,0.0508 -0.3048,0.1016 0,0 -0.0508,0 -0.0508,0 l -0.1016,0.1016 -0.1016,0.1016 -0.1524,0.1016 -0.0508,0.0508 c -0.1016,0.1016 -0.2032,0.254 -0.254,0.3556 0,0 0,0.0508 0,0.1016 0,0 0,0 0,0.0508 0,0.0508 0,0.1524 0.0508,0.2032 0.0508,0.0508 0.1524,0.1016 0.2032,0.1016 z m 2.4892,2.9464 c -0.508,0.6096 -1.3208,1.5748 -1.8796,2.1844 -0.508,0.508 -1.3716,1.2192 -1.9812,1.6256 -0.1524,0.1016 -0.4572,0.254 -0.6096,0.3556 -0.254,0.1016 -0.6604,0.2032 -0.9144,0.254 -0.2032,0 -0.4064,-0.2032 -0.4572,-0.3556 -0.1016,-0.4064 0.0508,-0.8128 0.2032,-1.1684 0.254,-0.7112 0.8128,-1.8288 1.2192,-2.4892 0.1524,-0.3048 0.508,-0.8128 0.762,-1.1176 0.1524,-0.1524 0.3048,-0.3048 0.4572,-0.508 0.1524,-0.1524 0.3048,-0.4572 0.4064,-0.7112 0,0 0,-0.0508 0,-0.0508 0,-0.1524 -0.1016,-0.254 -0.254,-0.254 0,0 -0.0508,0 -0.0508,0 -0.5588,0.1524 -0.9144,0.6604 -1.27,1.0668 -0.254,0.3048 -0.6604,0.8636 -0.8636,1.2192 -0.508,0.8128 -1.0668,2.2352 -1.2192,3.2004 -0.1016,0.5588 0.0508,1.2192 0.6096,1.4732 0.4572,0.2032 0.9144,0 1.3208,-0.2032 0.9144,-0.4572 1.6764,-1.2192 2.4384,-1.9304 0.762,-0.8128 1.4732,-1.6256 2.1844,-2.4892 0,0 0.0508,-0.0508 0.0508,-0.0508 0,-0.0508 -0.0508,-0.1016 -0.1016,-0.1016 -0.0508,0 -0.0508,0.0508 -0.0508,0.0508 z" />
      <path
         d="m 72.262016,61.98316 c -1.224242,0.107572 -2.148945,0.413786 -3.195624,1.040422 -0.954902,0.55755 -1.917224,1.324055 -2.94925,2.348892 -1.660865,1.599776 -3.339562,3.699503 -4.986011,6.013845 -0.284945,-0.004 -0.665047,-0.0449 -0.881675,-0.121046 0.0094,-0.05473 -0.04845,-0.04623 -0.106345,-0.03774 -0.11568,0.01696 -0.241226,0.08897 -0.259997,0.199526 -0.0055,0.01141 -0.05798,0.0086 -0.05798,0.0086 -0.05799,0.0086 -0.125423,0.07259 -0.134695,0.12778 0.0031,0.04794 -0.0092,0.05513 -0.0092,0.05513 0.02628,0.375409 0.102496,1.295401 0.10654,1.614037 -0.07098,0.111647 -0.202631,0.279552 -0.273613,0.391199 -1.015344,1.443355 -1.865037,2.777433 -2.452123,3.621073 -0.277322,0.434784 -0.513152,0.755681 -0.619066,0.894373 -0.06579,0.113207 -0.123052,0.130427 0.352721,-0.222979 0.192949,-0.151566 0.906608,-0.723024 1.49541,-0.897637 0.607847,-0.148743 0.634366,0.200292 0.697591,0.286974 0.129028,0.248531 0.413039,0.188749 0.613421,-0.130759 0.229229,-0.415219 0.534911,-1.746771 0.602866,-2.86081 0.0078,-0.128542 -0.03051,-0.380641 -0.01802,-0.517945 0.457178,-0.598548 0.875727,-1.209896 1.36321,-1.838418 1.030892,-0.200726 2.264409,-0.743322 3.210514,-1.190287 1.086209,-0.492327 3.749233,-1.94695 4.609093,-2.442087 0.179354,-0.129435 0.06232,-0.313889 -0.183701,-0.208017 -0.93999,0.614084 -3.04818,1.752729 -4.245099,2.215103 -0.784248,0.366017 -2.071185,0.749757 -2.892079,0.945341 1.306995,-1.776679 2.678328,-3.439068 4.017446,-4.871588 1.183557,-1.203785 2.230478,-2.152111 3.328114,-2.827675 0.986465,-0.685818 1.990339,-1.061803 2.954783,-1.328215 0.04609,0.0122 0.05151,0.0094 0.05151,0.0094 0.105472,-0.01895 0.21555,-0.0749 0.269372,-0.117801 0.0032,-0.05284 -0.09861,-0.104241 -0.253343,-0.131487 -0.04158,-0.004 -0.154734,-0.02725 -0.154734,-0.02725 z M 59.402632,76.814042 c -0.234816,0.554804 -0.453794,0.807682 -0.660133,0.80329 -0.04002,-0.01772 -0.190996,-0.1139 -0.295889,-0.211026 -0.01658,-0.07183 -0.139694,-0.181148 -0.430445,-0.095 -0.489963,0.154441 -0.831835,0.539478 -0.90693,0.606881 -0.222732,0.271746 -0.06697,0.116262 0.02981,0.02952 0.110721,-0.142884 0.355036,-0.434607 0.600823,-0.774267 0.54665,-0.690685 1.237925,-1.670686 2.055806,-2.802176 0.0083,0.04958 -0.0077,0.129619 -0.0077,0.129619 -0.03964,0.719803 -0.308274,2.0287 -0.385342,2.313155 z m 0.80063,-4.152565 c -0.02403,-0.241887 -0.09433,-0.533846 -0.110086,-0.791549 0.166023,0.02425 0.382365,0.08918 0.549035,0.109624 -0.148029,0.228794 -0.294452,0.456357 -0.438949,0.681925 z"
         style="font-size:50.8px;font-family:'Bellamy Signature';-inkscape-font-specification:'Bellamy Signature, Normal'"
         id="path620"
         inkscape:original-d="m 71.776491,56.316036 c -1.1684,0.9652 -2.0828,2.2352 -2.9464,3.5052 -0.8128,1.1684 -1.5748,2.3368 -2.3368,3.556 -1.2192,1.8796 -2.3876,3.81 -3.5052,5.7912 -0.254,-0.0508 -0.6096,-0.1524 -0.8128,-0.254 0,-0.0508 -0.0508,-0.0508 -0.1016,-0.0508 -0.1016,0 -0.2032,0.0508 -0.2032,0.1524 0,0 -0.0508,0 -0.0508,0 -0.0508,0 -0.1016,0.0508 -0.1016,0.1016 0,0.0508 0,0.0508 0,0.0508 0.1016,0.4572 0.254,1.1684 0.3048,1.6256 -0.0508,0.1016 -0.1524,0.254 -0.2032,0.3556 -0.762,1.3208 -1.4732,2.6924 -2.1844,4.0132 -0.3556,0.7112 -0.7112,1.3716 -1.0668,2.0828 -0.3048,0.6604 -0.6604,1.3208 -0.7112,2.0828 -0.0508,0.4572 0,1.1176 0.5588,1.2192 0.6096,0.0508 1.016,-0.508 1.3208,-0.8636 0.6096,-0.762 1.4224,-2.0828 1.8288,-2.9972 0.508,-1.2192 0.9144,-3.2512 0.9144,-4.572 0,-0.1524 -0.0508,-0.4572 -0.0508,-0.6096 0.3556,-0.5588 0.6604,-1.1176 1.016,-1.6764 0.9144,0 1.9304,-0.3048 2.7432,-0.6096 1.1684,-0.4064 2.8956,-1.3716 3.8608,-2.0828 0.1524,-0.1524 0,-0.4064 -0.2032,-0.3048 -0.8636,0.762 -2.4384,1.6256 -3.556,1.9304 -0.6604,0.254 -1.778,0.4064 -2.4892,0.4572 0.9144,-1.5748 1.8796,-3.0988 2.8448,-4.6736 0.8636,-1.3208 1.6764,-2.6416 2.5908,-3.9116 0.8128,-1.27 1.7272,-2.4384 2.6416,-3.6068 0,0 0,0 0,0 0.0508,0 0.0508,0 0.0508,0 0.1016,-0.1016 0.2032,-0.3048 0.254,-0.4572 0,0 0,0 0,0 0,-0.1524 -0.1016,-0.254 -0.254,-0.254 -0.0508,0 -0.1016,0 -0.1524,0 z m -10.16,19.2532 c -0.3048,0.8636 -0.9144,2.1844 -1.4732,2.9464 -0.2032,0.3556 -0.6604,0.9144 -0.9652,1.2192 -0.1524,0.2032 -0.4572,0.4572 -0.7112,0.4064 -0.4064,-0.1016 -0.2032,-0.8636 -0.1524,-1.0668 0.2032,-0.5588 0.6096,-1.4224 0.9144,-1.9304 0.3048,-0.6096 0.6604,-1.2192 0.9652,-1.778 0.6604,-1.1176 1.27,-2.1844 1.9304,-3.302 0,0.0508 0,0.1016 0,0.1524 0,0.9652 -0.254,2.4384 -0.508,3.3528 z m 0.7112,-5.2832 c -0.0508,-0.254 -0.1524,-0.5588 -0.2032,-0.8128 0.1524,0.0508 0.3556,0.1524 0.508,0.2032 z" />
      <path
         d="m 78.380614,67.439139 c -0.99294,0.230462 -1.951516,0.504233 -2.912268,0.886978 0.254129,-0.254576 0.513698,-0.504009 0.707831,-0.732768 0.31828,-0.311282 0.71032,-0.790063 0.962341,-1.059252 0.01217,-0.01129 0.0027,-0.02327 0.0027,-0.02327 0.0082,-0.06979 -0.09554,-0.122411 -0.25927,-0.130915 -0.05467,-0.0028 -0.111974,0.0181 -0.169717,0.03955 -1.618567,0.625069 -3.078462,1.454955 -5.005941,2.489646 -0.338237,0.182355 -1.166289,0.619184 -1.560596,0.810516 -0.342949,0.166412 -1.042961,0.601524 -1.467928,0.552135 -0.564289,-0.02668 0.25772,-0.94988 0.456662,-1.19739 0.229373,-0.349638 0.682246,-0.8344 0.953544,-1.088966 0.444531,-0.417113 0.987175,-0.869153 1.414073,-1.188955 0.254831,-0.180834 0.493246,-0.34315 0.749811,-0.539027 0.120223,-0.06381 0.250951,-0.189685 0.272746,-0.314709 0,0 -0.04861,-0.033 -0.04309,-0.06454 0.0055,-0.03146 -0.04854,-0.0332 -0.09697,-0.0667 -0.276954,0.02209 -0.615139,0.108119 -0.803842,0.240744 -0.19069,0.103203 -0.47987,0.295077 -0.680062,0.446391 -0.453129,0.300178 -1.053198,0.775508 -1.415242,1.169466 -0.411362,0.422271 -0.957149,1.095287 -1.208373,1.582316 -0.234,0.42636 -0.604887,1.015616 -0.246807,1.274233 0.564989,0.470416 2.248986,-0.65145 2.920848,-0.995009 0.846908,-0.490718 2.174233,-1.210826 2.955968,-1.625035 0.858852,-0.484455 1.667142,-0.870043 2.439046,-1.204834 -0.708685,0.64603 -1.440011,1.339428 -2.240035,2.196995 -0.723142,0.358214 -1.491496,0.759055 -2.280667,1.239589 -0.960763,0.592588 -2.118929,1.401041 -3.003361,2.089254 -0.724833,0.592164 -1.812903,1.594141 -2.268984,2.115259 -0.26538,0.265391 -0.537552,0.626902 -0.585315,0.784824 -0.119742,0.17562 -0.125368,0.324219 -0.04303,0.378573 0.03959,0.01559 0.07448,0.04086 0.07448,0.04086 0.214742,0.01731 0.795857,-0.109197 1.262836,-0.240055 0.07928,-0.02222 0.174649,-0.05541 0.25393,-0.07763 0.595049,-0.181956 0.899964,-0.343092 1.313871,-0.577784 0.689547,-0.386738 1.491101,-1.057494 2.088828,-1.636991 0.684874,-0.651953 1.424314,-1.424533 2.081348,-2.113049 0.762151,-0.855314 1.484877,-1.583664 2.211521,-2.312836 0.0032,-0.0263 0.0032,-0.02635 0.06027,-0.03308 1.084262,-0.46518 2.104215,-0.776379 3.270397,-1.028438 0.183424,-0.02133 -0.0019,-0.124141 -0.16158,-0.08611 z m -5.308947,2.624078 c -0.682374,0.700062 -1.328201,1.43315 -2.010576,2.133212 -0.484592,0.534399 -1.277704,1.33765 -1.836345,1.789061 -0.283861,0.231709 -0.664799,0.515758 -0.971436,0.714163 -0.374033,0.221809 -0.64432,0.397932 -1.19386,0.581499 -0.322694,0.09637 -0.668517,0.157581 -0.736444,0.110416 0.0019,-0.0094 -0.02295,-0.01683 -0.02295,-0.01683 -0.03333,-0.02578 -0.08772,-0.07764 -0.04938,-0.12199 0.01434,-0.151845 0.194964,-0.490963 0.394046,-0.750969 0.443244,-0.495606 1.404128,-1.43717 2.109908,-2.013297 0.834064,-0.648713 1.953411,-1.491005 2.928934,-2.079063 0.733554,-0.477159 1.495113,-0.887161 2.222852,-1.259979 -0.260229,0.292396 -0.577574,0.605688 -0.834747,0.913776 z"
         style="font-size:50.8px;font-family:'Bellamy Signature';-inkscape-font-specification:'Bellamy Signature, Normal'"
         id="path622"
         inkscape:original-d="m 78.177211,66.679236 c -1.016,0.6604 -1.5748,0.9652 -2.54,1.6256 0.2032,-0.4572 0.4064,-0.9144 0.5588,-1.3716 0.254,-0.6096 0.5588,-1.6256 0.762,-2.2352 0,-0.0508 0,-0.0508 0,-0.0508 0,-0.1524 -0.1016,-0.254 -0.254,-0.254 -0.0508,0 -0.1016,0.0508 -0.1524,0.1016 0,0 0,0 0,0 -1.3716,1.4224 -2.6924,2.8448 -4.2672,3.9624 -0.3556,0.254 -0.9144,0.6096 -1.3208,0.8128 -0.3048,0.1524 -0.8636,0.5588 -1.27,0.3556 -0.508,-0.2032 0.1016,-1.2192 0.254,-1.524 0.1524,-0.4064 0.508,-1.016 0.7112,-1.3208 0.3048,-0.4572 0.8128,-1.1684 1.1176,-1.5748 0.2032,-0.254 0.4064,-0.508 0.6096,-0.8128 0.1016,-0.1016 0.2032,-0.3048 0.2032,-0.508 0,0 -0.0508,-0.0508 -0.0508,-0.1016 0,-0.0508 -0.0508,-0.0508 -0.1016,-0.1016 -0.254,0.0508 -0.5588,0.2032 -0.7112,0.4064 -0.1524,0.1524 -0.4064,0.4572 -0.5588,0.6604 -0.3556,0.4064 -0.8636,1.0668 -1.1176,1.524 -0.3048,0.508 -0.7112,1.3208 -0.8636,1.8796 -0.1524,0.508 -0.4064,1.1684 -0.0508,1.6256 0.6096,0.8636 1.9304,-0.2032 2.54,-0.5588 0.7112,-0.508 1.8288,-1.3716 2.4892,-1.9812 0.7112,-0.7112 1.4224,-1.4224 2.0828,-2.1336 -0.5588,1.3208 -1.1684,2.6416 -1.778,3.9624 -0.6096,0.4572 -1.27,0.9144 -1.9304,1.4224 -0.7112,0.5588 -1.8796,1.524 -2.54,2.1336 -0.6096,0.6096 -1.5748,1.7272 -2.032,2.4892 -0.254,0.3556 -0.5588,0.9652 -0.6604,1.3716 -0.1524,0.3556 -0.254,0.8636 -0.254,1.2192 0,0.1016 0,0.254 0,0.3048 0.1016,0.4572 0.508,0.8636 0.9652,0.8636 0.1016,0 0.2032,-0.0508 0.254,-0.0508 0.5588,-0.1016 1.016,-0.5588 1.4224,-0.9144 0.7112,-0.6096 1.6256,-1.778 2.1336,-2.54 0.6604,-0.9652 1.27,-1.9812 1.8288,-2.9972 0.6096,-1.2192 1.2192,-2.3876 1.778,-3.6068 0,-0.0508 0,-0.0508 0.0508,-0.0508 1.0668,-0.762 1.6764,-1.1176 2.8448,-1.8288 0.1524,-0.0508 0,-0.3048 -0.1524,-0.2032 z m -4.5212,4.1656 c -0.5588,1.016 -1.0668,1.9812 -1.6764,2.9464 -0.4064,0.7112 -1.1684,1.8796 -1.7272,2.54 -0.254,0.3048 -0.7112,0.8128 -1.016,1.1176 -0.3556,0.3048 -0.762,0.762 -1.27,0.8636 0,0 0,0 0,0 -0.3048,0 -0.5588,-0.254 -0.5588,-0.5588 0,0 0,0 0,0 0,-0.0508 0,-0.1016 0,-0.1016 0,-0.1524 0,-0.4064 0.0508,-0.508 0.1016,-0.508 0.3556,-1.2192 0.5588,-1.6256 0.4572,-0.762 1.3208,-1.8796 1.9304,-2.4892 0.6604,-0.6096 1.7272,-1.5748 2.4892,-2.1336 0.6096,-0.508 1.27,-0.9652 1.8796,-1.4224 -0.2032,0.4572 -0.4572,0.9144 -0.6604,1.3716 z" />
    </g>
  </g>
</svg>
